<?xml version="1.0" standalone="no"?>
<!DOCTYPE svg PUBLIC "-//W3C//DTD SVG 20010904//EN"
 "http://www.w3.org/TR/2001/REC-SVG-20010904/DTD/svg10.dtd">
<svg version="1.0" xmlns="http://www.w3.org/2000/svg"
 width="144.000000pt" height="144.000000pt" viewBox="0 0 144.000000 144.000000"
 preserveAspectRatio="xMidYMid meet">
<metadata>
Created by potrace 1.11, written by Peter Selinger 2001-2013
</metadata>
<g transform="translate(0.000000,144.000000) scale(0.100000,-0.100000)"
fill="#000000" stroke="none">
<path d="M213 1431 c-49 -12 -118 -57 -153 -98 -58 -72 -60 -88 -60 -622 0
-287 4 -500 10 -521 18 -65 66 -127 122 -159 l53 -31 540 0 541 0 54 33 c40
23 64 47 87 87 l33 54 0 533 c0 430 -3 540 -14 567 -21 50 -74 104 -130 134
l-51 27 -500 2 c-275 1 -514 -2 -532 -6z m670 -269 c169 -60 294 -222 313
-404 24 -242 -159 -473 -404 -510 -362 -54 -650 326 -498 658 85 185 252 289
451 280 46 -2 104 -12 138 -24z"/>
<path d="M606 1090 c-69 -22 -154 -78 -189 -123 -13 -18 -37 -57 -53 -87 -27
-51 -29 -63 -29 -165 0 -99 3 -115 27 -165 38 -76 82 -127 150 -171 59 -38
167 -70 225 -68 18 1 12 4 -19 9 -116 20 -223 97 -274 197 -26 53 -29 67 -29
158 0 84 4 107 24 147 37 75 95 134 169 170 61 30 74 33 157 32 109 -1 161
-21 237 -91 53 -50 108 -147 108 -193 0 -14 5 -32 10 -40 14 -21 2 73 -17 133
-64 204 -292 323 -497 257z"/>
<path d="M825 931 c200 -91 178 -386 -33 -447 -68 -20 -121 -13 -189 26 -54
31 -97 89 -114 153 -7 25 -8 20 -4 -21 14 -172 192 -290 359 -237 184 58 258
286 143 437 -35 45 -140 108 -180 108 -16 0 -11 -5 18 -19z"/>
<path d="M660 869 c-115 -48 -135 -209 -37 -290 34 -28 97 -40 142 -28 55 15
78 33 104 80 42 75 20 169 -52 223 -30 22 -119 31 -157 15z"/>
</g>
</svg>
